<?xml version="1.0" encoding="UTF-8"?><svg id="Layer_1" xmlns="http://www.w3.org/2000/svg" viewBox="0 0 219.8 316.68"><defs><style>.cls-1{fill:#fff;}.cls-2{fill:#1d1d1b;}</style></defs><g><circle class="cls-1" cx="123.48" cy="81.61" r="27.52"/><path class="cls-2" d="M123.48,111.97c-16.74,0-30.36-13.62-30.36-30.36s13.62-30.36,30.36-30.36,30.36,13.62,30.36,30.36-13.62,30.36-30.36,30.36Zm0-55.03c-13.6,0-24.67,11.07-24.67,24.67s11.07,24.67,24.67,24.67,24.67-11.07,24.67-24.67-11.07-24.67-24.67-24.67Z"/></g><path class="cls-2" d="M207.3,239.66c-4.96,1.29-9.41,1.64-14.55,2.07-6.31,.53-12.65,.82-18.98,.98-14.08,.35-28.12-.59-42.18-1.23-10.41-.48-20.82-.96-31.23-1.44l2.86,2.86c.43-10.57,.68-21.15,.76-31.73,.04-5.2,.03-10.39-.02-15.59-.02-2.64-.06-5.29-.11-7.93-.04-2.23-.03-4.45-.46-6.64-.74-3.76-3.38-7.77-7.76-6.83-2.21,.48-3.74,2.31-4.9,4.13-1.38,2.16-2.65,4.38-3.98,6.57-2.68,4.43-5.35,8.86-8.03,13.29-1.36,2.26-2.72,4.51-4.09,6.77-1.03,1.7-2.03,3.59-3.58,4.88-2.89,2.41-6.62,0-8.3-2.79-2.08-3.45-2.95-7.78-.72-11.36,1.95-3.13-2.99-6-4.93-2.88-4.42,7.12-1.42,18.31,6,22.31,3.99,2.15,8.56,1.81,11.99-1.24,1.62-1.44,2.83-3.34,3.95-5.17,1.35-2.22,2.69-4.45,4.03-6.67,2.77-4.59,5.55-9.18,8.32-13.77,1.35-2.23,2.68-4.48,4.05-6.7,.39-.63,.77-1.28,1.35-1.73s-.1,.12,0-.09c-.05,.09,.3,.01,.1,.04-.12,.01-.32-.27-.1-.02,.6,.71,1.09,2.39,1.22,3.71,.24,2.41,.14,4.9,.17,7.32,.08,5.29,.11,10.58,.1,15.87-.03,12.09-.29,24.18-.78,36.26-.06,1.59,1.36,2.79,2.86,2.86,18.74,.86,37.48,1.72,56.22,2.58,11.47,.53,23.05,.12,34.5-.76,5.91-.45,11.99-.91,17.74-2.41,3.55-.93,2.05-6.44-1.52-5.51h0Z"/><path class="cls-2" d="M62.06,195.67c6.21-11.57,12.47-23.12,18.8-34.63,5.38-9.79,10.75-20.17,20.13-26.75,8.37-5.87,18.52-8.64,28.64-9.35,2.62-.18,5.25-.25,7.87-.18s5.3,.27,7.6,1.5c4.28,2.29,6.16,7.45,7.74,11.74,4.16,11.27,2.33,23.82,6.49,35.1,.45,1.21,1.42,2.08,2.75,2.1,7.76,.12,15.64,.21,23.18,2.27,7.59,2.08,14.16,6.47,19.53,12.19,4.21,4.49,7.26,9.86,8.58,15.88,1.19,5.39,.88,11.33-.19,16.75-1.32,6.66-3.64,13.07-6.13,19.37-.57,1.44,.62,3.14,1.99,3.51,1.62,.45,2.95-.55,3.51-1.99,4.67-11.84,8.83-24.55,6.66-37.42-2.55-15.08-15.22-27.85-29.34-32.84-8.87-3.13-18.49-3.29-27.79-3.44l2.75,2.1c-3.88-10.54-2.57-22.16-5.75-32.88-1.52-5.12-3.74-10.82-7.55-14.68-4.46-4.52-10.76-5.05-16.78-4.99-11.04,.1-22.31,2.2-32.09,7.51-5.05,2.74-9.63,6.39-13.39,10.74-4,4.63-7.22,9.87-10.21,15.19-7.49,13.34-14.71,26.84-21.94,40.32-1.74,3.24,3.19,6.13,4.93,2.88h0Z"/><path class="cls-2" d="M97.7,243.01c-.06,17.85-.2,35.69-.18,53.54,0,4.17,.23,8.41,1.92,12.29,1.49,3.43,4.24,5.89,7.78,7.08s7.62,.97,10.85-.82c3.19-1.76,5.44-4.89,6.75-8.22,.83-2.11,.87-3.97,.94-6.16,.1-3.16,.21-6.32,.3-9.47,.28-9.05,.55-18.09,.77-27.14,.1-4.11,.19-8.22,.22-12.34,.01-1.98,.55-5.41-.97-6.98-2.56-2.65-6.6,1.39-4.04,4.04-.04-.04-.78-1.48-.69-1.1-.29-1.12-.07-.76-.07-.43s.03,.63,.04,.95c.03,1.01,.02,2.02,.02,3.03-.02,3.24-.08,6.49-.15,9.73-.18,8.56-.43,17.12-.7,25.69-.17,5.51-.41,11.03-.53,16.54,0,.13,0,.26-.01,.39,.07-.7,.03-.21-.1,.15-.24,.67-.41,1.34-.72,1.98-1.15,2.37-3.11,4.62-5.82,5.09-2.57,.44-5.51-.27-7.33-2.18-2.32-2.44-2.61-6.49-2.71-9.67-.29-9.23,.02-18.52,.05-27.76,.03-9.4,.06-18.8,.09-28.2,.01-3.68-5.7-3.68-5.71,0h0Z"/><path class="cls-2" d="M134.76,244.93c-.03,9.1-.06,18.21-.09,27.31-.03,8.77-.21,17.56-.07,26.33,.06,4.01,.47,8.14,2.34,11.76,1.63,3.17,4.8,5.44,8.29,6.1s6.85,.12,9.62-1.98,4.72-5.27,5.63-8.63c.46-1.68,.4-3.4,.45-5.13,.1-3.21,.2-6.42,.29-9.63,.25-8.63,.49-17.25,.68-25.88,.09-3.94,.17-7.88,.19-11.82,.01-2,.49-5.14-.96-6.75-2.46-2.74-6.49,1.31-4.04,4.04,.08,.08-1.12-1.53-.79-1.82-.02,.02,.02,.22,.02,.24,0,.31,.03,.62,.04,.93,.02,.96,.02,1.91,.02,2.87-.01,3.08-.07,6.15-.13,9.23-.16,8.2-.39,16.4-.62,24.59-.16,5.54-.32,11.07-.5,16.61,0,.18,0,.37-.02,.56,0,.04,0,.07,0,.11,.08-.98-.18,.49-.25,.71-.7,2.32-2.23,4.88-4.52,5.9-2.16,.95-5.15,.42-6.93-1.1-2.33-2-2.83-5.57-3.01-8.45-.28-4.45-.09-8.95-.07-13.41l.04-14.22,.09-28.45c.01-3.68-5.7-3.68-5.71,0h0Z"/></svg>